<svg preserveAspectRatio="none" width="100%" height="100%" overflow="visible" style="display: block;" viewBox="0 0 40 40" fill="none" xmlns="http://www.w3.org/2000/svg">
<g id="Chart">
<g id="Ellipse 41" filter="url(#filter0_i_0_134)">
<path d="M40 20C40 31.0457 31.0457 40 20 40C8.95431 40 0 31.0457 0 20C0 8.95431 8.95431 0 20 0C31.0457 0 40 8.95431 40 20ZM5.6 20C5.6 27.9529 12.0471 34.4 20 34.4C27.9529 34.4 34.4 27.9529 34.4 20C34.4 12.0471 27.9529 5.6 20 5.6C12.0471 5.6 5.6 12.0471 5.6 20Z" fill="var(--fill-0, #106844)" fill-opacity="0.06"/>
</g>
<g id="Ellipse 42">
<mask id="path-2-inside-1_0_134" fill="white">
<path d="M20 2.8C20 1.2536 21.2596 -0.020121 22.7909 0.195675C25.5752 0.588057 28.2564 1.5648 30.6538 3.07378C33.8444 5.08201 36.4024 7.95114 38.0328 11.3503C39.6633 14.7495 40.2998 18.5403 39.869 22.2856C39.4381 26.0309 37.9575 29.5781 35.5978 32.5183C33.2381 35.4585 30.0955 37.6718 26.5323 38.9032C22.969 40.1345 19.1303 40.3336 15.4588 39.4776C11.7873 38.6216 8.43248 36.7453 5.78123 34.0651C3.78908 32.0512 2.25512 29.645 1.26934 27.0116C0.727199 25.5634 1.69806 24.0579 3.20779 23.7231V23.7231C4.71753 23.3884 6.18848 24.3582 6.80863 25.7748C7.51456 27.3873 8.51344 28.8642 9.76248 30.1269C11.6714 32.0566 14.0869 33.4076 16.7303 34.0239C19.3738 34.6402 22.1377 34.4968 24.7032 33.6103C27.2688 32.7237 29.5315 31.1301 31.2304 29.0132C32.9294 26.8962 33.9955 24.3422 34.3057 21.6456C34.6159 18.949 34.1576 16.2196 32.9836 13.7722C31.8097 11.3248 29.9679 9.25905 27.6707 7.81312C26.1676 6.86702 24.5095 6.21151 22.7824 5.87137C21.2652 5.57256 20 4.3464 20 2.8V2.8Z"/>
</mask>
<g filter="url(#filter1_i_0_134)">
<path d="M20 2.8C20 1.2536 21.2596 -0.020121 22.7909 0.195675C25.5752 0.588057 28.2564 1.5648 30.6538 3.07378C33.8444 5.08201 36.4024 7.95114 38.0328 11.3503C39.6633 14.7495 40.2998 18.5403 39.869 22.2856C39.4381 26.0309 37.9575 29.5781 35.5978 32.5183C33.2381 35.4585 30.0955 37.6718 26.5323 38.9032C22.969 40.1345 19.1303 40.3336 15.4588 39.4776C11.7873 38.6216 8.43248 36.7453 5.78123 34.0651C3.78908 32.0512 2.25512 29.645 1.26934 27.0116C0.727199 25.5634 1.69806 24.0579 3.20779 23.7231V23.7231C4.71753 23.3884 6.18848 24.3582 6.80863 25.7748C7.51456 27.3873 8.51344 28.8642 9.76248 30.1269C11.6714 32.0566 14.0869 33.4076 16.7303 34.0239C19.3738 34.6402 22.1377 34.4968 24.7032 33.6103C27.2688 32.7237 29.5315 31.1301 31.2304 29.0132C32.9294 26.8962 33.9955 24.3422 34.3057 21.6456C34.6159 18.949 34.1576 16.2196 32.9836 13.7722C31.8097 11.3248 29.9679 9.25905 27.6707 7.81312C26.1676 6.86702 24.5095 6.21151 22.7824 5.87137C21.2652 5.57256 20 4.3464 20 2.8V2.8Z" fill="var(--fill-0, #FBBF24)"/>
</g>
<path d="M20 2.8C20 1.2536 21.2596 -0.020121 22.7909 0.195675C25.5752 0.588057 28.2564 1.5648 30.6538 3.07378C33.8444 5.08201 36.4024 7.95114 38.0328 11.3503C39.6633 14.7495 40.2998 18.5403 39.869 22.2856C39.4381 26.0309 37.9575 29.5781 35.5978 32.5183C33.2381 35.4585 30.0955 37.6718 26.5323 38.9032C22.969 40.1345 19.1303 40.3336 15.4588 39.4776C11.7873 38.6216 8.43248 36.7453 5.78123 34.0651C3.78908 32.0512 2.25512 29.645 1.26934 27.0116C0.727199 25.5634 1.69806 24.0579 3.20779 23.7231V23.7231C4.71753 23.3884 6.18848 24.3582 6.80863 25.7748C7.51456 27.3873 8.51344 28.8642 9.76248 30.1269C11.6714 32.0566 14.0869 33.4076 16.7303 34.0239C19.3738 34.6402 22.1377 34.4968 24.7032 33.6103C27.2688 32.7237 29.5315 31.1301 31.2304 29.0132C32.9294 26.8962 33.9955 24.3422 34.3057 21.6456C34.6159 18.949 34.1576 16.2196 32.9836 13.7722C31.8097 11.3248 29.9679 9.25905 27.6707 7.81312C26.1676 6.86702 24.5095 6.21151 22.7824 5.87137C21.2652 5.57256 20 4.3464 20 2.8V2.8Z" stroke="var(--stroke-0, #1A1A1A)" stroke-opacity="0.09" stroke-width="2.14286" mask="url(#path-2-inside-1_0_134)"/>
</g>
</g>
<defs>
<filter id="filter0_i_0_134" x="0" y="0" width="40" height="40" filterUnits="userSpaceOnUse" color-interpolation-filters="sRGB">
<feFlood flood-opacity="0" result="BackgroundImageFix"/>
<feBlend mode="normal" in="SourceGraphic" in2="BackgroundImageFix" result="shape"/>
<feColorMatrix in="SourceAlpha" type="matrix" values="0 0 0 0 0 0 0 0 0 0 0 0 0 0 0 0 0 0 127 0" result="hardAlpha"/>
<feOffset/>
<feGaussianBlur stdDeviation="0.535714"/>
<feComposite in2="hardAlpha" operator="arithmetic" k2="-1" k3="1"/>
<feColorMatrix type="matrix" values="0 0 0 0 0 0 0 0 0 0 0 0 0 0 0 0 0 0 0.25 0"/>
<feBlend mode="normal" in2="shape" result="effect1_innerShadow_0_134"/>
</filter>
<filter id="filter1_i_0_134" x="1.11749" y="-0.899686" width="38.8825" height="40.8997" filterUnits="userSpaceOnUse" color-interpolation-filters="sRGB">
<feFlood flood-opacity="0" result="BackgroundImageFix"/>
<feBlend mode="normal" in="SourceGraphic" in2="BackgroundImageFix" result="shape"/>
<feColorMatrix in="SourceAlpha" type="matrix" values="0 0 0 0 0 0 0 0 0 0 0 0 0 0 0 0 0 0 127 0" result="hardAlpha"/>
<feOffset dy="-1.07143"/>
<feGaussianBlur stdDeviation="1.60714"/>
<feComposite in2="hardAlpha" operator="arithmetic" k2="-1" k3="1"/>
<feColorMatrix type="matrix" values="0 0 0 0 0 0 0 0 0 0 0 0 0 0 0 0 0 0 0.25 0"/>
<feBlend mode="normal" in2="shape" result="effect1_innerShadow_0_134"/>
</filter>
</defs>
</svg>
