<svg preserveAspectRatio="none" width="100%" height="100%" overflow="visible" style="display: block;" viewBox="0 0 20 20" fill="none" xmlns="http://www.w3.org/2000/svg">
<g id="Icon/Small/Question">
<g id="Artwork">
<path d="M8.04776 6.8666C8.1598 6.40811 8.36458 6.1544 8.6093 5.99706C8.87579 5.82573 9.27653 5.71429 9.85426 5.71429C10.2738 5.71429 10.6056 5.83994 10.8211 6.03248C11.0211 6.21115 11.1974 6.51415 11.1974 7.04543C11.1974 7.36503 11.1085 7.54727 10.9841 7.7016C10.8343 7.88737 10.633 8.03867 10.3114 8.28025L10.2493 8.32693C9.92656 8.56968 9.50062 8.89736 9.1717 9.37503C8.82558 9.8777 8.6174 10.4965 8.6174 11.2857C8.6174 11.7591 9.00116 12.1429 9.47454 12.1429C9.94793 12.1429 10.3317 11.7591 10.3317 11.2857C10.3317 10.8227 10.446 10.5471 10.5836 10.3473C10.7385 10.1224 10.9575 9.93932 11.2798 9.69693C11.3081 9.67559 11.3379 9.65342 11.3688 9.63039C11.6502 9.42061 12.0263 9.1403 12.3187 8.77747C12.6781 8.3317 12.9117 7.77326 12.9117 7.04543C12.9117 6.08871 12.5716 5.29756 11.9633 4.75409C11.3705 4.22449 10.6022 4 9.85426 4C9.07941 4 8.3183 4.14613 7.68222 4.55508C7.02437 4.97803 6.58586 5.62732 6.38247 6.45968C6.2701 6.91954 6.5518 7.38342 7.01165 7.49579C7.47151 7.60816 7.93539 7.32646 8.04776 6.8666Z" fill="var(--fill-0, #1A1A1A)" fill-opacity="0.6"/>
<path d="M10.7654 14.7143C10.7654 15.4244 10.1898 16 9.47968 16C8.7696 16 8.19397 15.4244 8.19397 14.7143C8.19397 14.0042 8.7696 13.4286 9.47968 13.4286C10.1898 13.4286 10.7654 14.0042 10.7654 14.7143Z" fill="var(--fill-0, #1A1A1A)" fill-opacity="0.6"/>
</g>
</g>
</svg>
