<svg preserveAspectRatio="none" width="100%" height="100%" overflow="visible" style="display: block;" viewBox="0 0 20 20" fill="none" xmlns="http://www.w3.org/2000/svg">
<g id="Frame">
<g id="Artwork">
<path d="M13.6113 9.16797V10.835H6.38867V9.16797H13.6113Z" fill="var(--fill-0, #1A1A1A)" fill-opacity="0.6"/>
<path fill-rule="evenodd" clip-rule="evenodd" d="M12.1865 1.75C12.9745 1.75 13.7309 2.06401 14.2881 2.62109L17.3789 5.71191C17.9361 6.26907 18.25 7.02545 18.25 7.81348V12.1855C18.25 12.9736 17.9361 13.7299 17.3789 14.2871L14.2881 17.3779C13.7309 17.935 12.9745 18.249 12.1865 18.249H7.81445C7.02652 18.249 6.26999 17.935 5.71289 17.3779L2.62207 14.2871C2.06499 13.73 1.75098 12.9735 1.75098 12.1855V7.81348C1.75098 7.02551 2.06499 6.26906 2.62207 5.71191L5.71289 2.62109C6.26999 2.06399 7.02652 1.75006 7.81445 1.75H12.1865ZM7.81445 3.25C7.42479 3.25006 7.04955 3.40553 6.77344 3.68164L3.68262 6.77246C3.40652 7.04862 3.25098 7.42378 3.25098 7.81348V12.1855C3.25098 12.5752 3.40652 12.9504 3.68262 13.2266L6.77344 16.3174C7.04955 16.5935 7.42479 16.749 7.81445 16.749H12.1865C12.5762 16.749 12.9514 16.5935 13.2275 16.3174L16.3184 13.2266C16.5945 12.9504 16.75 12.5753 16.75 12.1855V7.81348C16.75 7.42373 16.5945 7.04863 16.3184 6.77246L13.2275 3.68164C12.9514 3.40554 12.5762 3.25 12.1865 3.25H7.81445Z" fill="var(--fill-0, #1A1A1A)" fill-opacity="0.6"/>
</g>
</g>
</svg>
