<svg preserveAspectRatio="none" width="100%" height="100%" overflow="visible" style="display: block;" viewBox="0 0 20 20" fill="none" xmlns="http://www.w3.org/2000/svg">
<g id="Icon/Large/Book bookmark">
<path id="Artwork" d="M12 18.5C12 18.7019 11.8782 18.8848 11.6914 18.9619C11.6304 18.9879 11.564 19 11.5 19C11.37 19 11.2425 18.9495 11.1465 18.8535L10 17.708L8.85352 18.8535C8.70952 18.9965 8.49559 19.0409 8.30859 18.9619C8.12181 18.8848 8 18.7019 8 18.5V15H12V18.5ZM16.3271 2.50391C16.7051 2.54253 17 2.86183 17 3.25V13.25C17 13.2664 16.9981 13.2827 16.9971 13.2988C16.992 13.3781 16.9742 13.4559 16.9443 13.5303C16.9396 13.5421 16.9331 13.553 16.9277 13.5645C16.9137 13.5947 16.8981 13.6239 16.8799 13.6523C16.8745 13.6607 16.87 13.6696 16.8643 13.6777C16.8583 13.6862 16.854 13.6958 16.8477 13.7041C16.6497 13.9649 16.494 14.4321 16.4844 14.9727C16.4748 15.51 16.6111 15.9897 16.8438 16.292L16.9023 16.3809C17.0234 16.5946 17.0333 16.8566 16.9229 17.0811C16.7967 17.3375 16.5358 17.5 16.25 17.5H13.75C13.3358 17.5 13 17.1642 13 16.75C13 16.3358 13.3358 16 13.75 16H15.0996C15.0151 15.6483 14.9782 15.2883 14.9844 14.9453C14.99 14.6316 15.031 14.3104 15.1064 14H5.5C4.94793 14 4.5 14.4475 4.5 15C4.5 15.5525 4.94793 16 5.5 16H6.25C6.66421 16 7 16.3358 7 16.75C7 17.1642 6.66421 17.5 6.25 17.5H5.5C4.12007 17.5 3 16.3815 3 15V5.25C3 3.73079 4.23079 2.5 5.75 2.5H16.25L16.3271 2.50391ZM5.75 4C5.05921 4 4.5 4.55921 4.5 5.25V12.709C4.80638 12.5751 5.14439 12.5 5.5 12.5H15.5V4H5.75ZM6.75 10C7.16421 10 7.5 10.3358 7.5 10.75C7.5 11.1642 7.16421 11.5 6.75 11.5C6.33579 11.5 6 11.1642 6 10.75C6 10.3358 6.33579 10 6.75 10ZM6.75 7.5C7.16421 7.5 7.5 7.83579 7.5 8.25C7.5 8.66421 7.16421 9 6.75 9C6.33579 9 6 8.66421 6 8.25C6 7.83579 6.33579 7.5 6.75 7.5ZM6.75 5C7.16421 5 7.5 5.33579 7.5 5.75C7.5 6.16421 7.16421 6.5 6.75 6.5C6.33579 6.5 6 6.16421 6 5.75C6 5.33579 6.33579 5 6.75 5Z" fill="var(--fill-0, #1A1A1A)" fill-opacity="0.6"/>
</g>
</svg>
