<svg preserveAspectRatio="none" width="100%" height="100%" overflow="visible" style="display: block;" viewBox="0 0 20 20" fill="none" xmlns="http://www.w3.org/2000/svg">
<g id="Icon/Large/Voice">
<path id="Artwork" d="M11.25 3C11.6642 3 12 3.33579 12 3.75V16.25C12 16.6642 11.6642 17 11.25 17C10.8358 17 10.5 16.6642 10.5 16.25V3.75C10.5 3.33579 10.8358 3 11.25 3ZM5.25 4C5.66421 4 6 4.33579 6 4.75V15.25C6 15.6642 5.66421 16 5.25 16C4.83579 16 4.5 15.6642 4.5 15.25V4.75C4.5 4.33579 4.83579 4 5.25 4ZM8.25 6C8.66421 6 9 6.33579 9 6.75V13.25C9 13.6642 8.66421 14 8.25 14C7.83579 14 7.5 13.6642 7.5 13.25V6.75C7.5 6.33579 7.83579 6 8.25 6ZM14.25 6C14.6642 6 15 6.33579 15 6.75V13.25C15 13.6642 14.6642 14 14.25 14C13.8358 14 13.5 13.6642 13.5 13.25V6.75C13.5 6.33579 13.8358 6 14.25 6ZM2.25 8.5C2.66421 8.5 3 8.83579 3 9.25V10.75C3 11.1642 2.66421 11.5 2.25 11.5C1.83579 11.5 1.5 11.1642 1.5 10.75V9.25C1.5 8.83579 1.83579 8.5 2.25 8.5ZM17.25 8.5C17.6642 8.5 18 8.83579 18 9.25V10.75C18 11.1642 17.6642 11.5 17.25 11.5C16.8358 11.5 16.5 11.1642 16.5 10.75V9.25C16.5 8.83579 16.8358 8.5 17.25 8.5Z" fill="var(--fill-0, #1A1A1A)" fill-opacity="0.6"/>
</g>
</svg>
