<svg preserveAspectRatio="none" width="100%" height="100%" overflow="visible" style="display: block;" viewBox="0 0 13.5 13.5" fill="none" xmlns="http://www.w3.org/2000/svg">
<g id="Google__G__logo 1">
<path id="Vector" d="M12.69 6.89062C12.69 6.45188 12.6506 6.03 12.5775 5.625H6.75V8.02125H10.08C9.93375 8.79188 9.495 9.44437 8.83688 9.88312V11.4413H10.845C12.015 10.3613 12.69 8.775 12.69 6.89062Z" fill="var(--fill-0, #4285F4)"/>
<path id="Vector_2" d="M6.75 12.9375C8.42062 12.9375 9.82125 12.3862 10.845 11.4412L8.83687 9.88311C8.28562 10.2544 7.5825 10.4794 6.75 10.4794C5.14125 10.4794 3.77437 9.39374 3.285 7.93124H1.22625V9.52874C2.24437 11.5481 4.33125 12.9375 6.75 12.9375Z" fill="var(--fill-0, #34A853)"/>
<path id="Vector_3" d="M3.285 7.92559C3.16125 7.55434 3.08812 7.16059 3.08812 6.74997C3.08812 6.33934 3.16125 5.94559 3.285 5.57434V3.97684H1.22625C0.804375 4.80934 0.5625 5.74872 0.5625 6.74997C0.5625 7.75122 0.804375 8.6906 1.22625 9.5231L2.82938 8.27434L3.285 7.92559Z" fill="var(--fill-0, #FBBC05)"/>
<path id="Vector_4" d="M6.75 3.02625C7.66125 3.02625 8.47125 3.34125 9.11812 3.94875L10.89 2.17687C9.81562 1.17562 8.42062 0.5625 6.75 0.5625C4.33125 0.5625 2.24437 1.95188 1.22625 3.97688L3.285 5.57437C3.77437 4.11187 5.14125 3.02625 6.75 3.02625Z" fill="var(--fill-0, #EA4335)"/>
<g id="Vector_5">
</g>
</g>
</svg>
