<svg preserveAspectRatio="none" width="100%" height="100%" overflow="visible" style="display: block;" viewBox="0 0 20 20" fill="none" xmlns="http://www.w3.org/2000/svg">
<g id="Icon/Large/Magnifying glass">
<path id="Artwork" fill-rule="evenodd" clip-rule="evenodd" d="M12.2511 13.3116C11.2815 14.0569 10.0675 14.5 8.75 14.5C5.57436 14.5 3 11.9256 3 8.75C3 5.57436 5.57436 3 8.75 3C11.9256 3 14.5 5.57436 14.5 8.75C14.5 10.0674 14.0569 11.2814 13.3117 12.251L16.7803 15.7196C17.0732 16.0125 17.0732 16.4873 16.7803 16.7802C16.4874 17.0731 16.0126 17.0731 15.7197 16.7802L12.2511 13.3116ZM4.5 8.75C4.5 6.40279 6.40279 4.5 8.75 4.5C11.0972 4.5 13 6.40279 13 8.75C13 9.9119 12.5337 10.9649 11.7781 11.7321C11.7702 11.7394 11.7624 11.7469 11.7547 11.7546C11.747 11.7623 11.7395 11.7701 11.7322 11.778C10.965 12.5337 9.91194 13 8.75 13C6.40279 13 4.5 11.0972 4.5 8.75Z" fill="var(--fill-0, #1A1A1A)" fill-opacity="0.6"/>
</g>
</svg>
