<svg preserveAspectRatio="none" width="100%" height="100%" overflow="visible" style="display: block;" viewBox="0 0 20 20" fill="none" xmlns="http://www.w3.org/2000/svg">
<g id="Icon/Large/Chat">
<g id="Artwork">
<path d="M9.00001 9.99721C9.00001 10.5482 9.44801 10.9972 10 10.9972C10.552 10.9972 11 10.5482 11 9.99721C11 9.44621 10.552 8.99721 10 8.99721C9.44801 8.99721 9.00001 9.44621 9.00001 9.99721Z" fill="black" fill-opacity="0.55"/>
<path d="M6.50001 10.9972C5.94801 10.9972 5.50001 10.5482 5.50001 9.99721C5.50001 9.44621 5.94801 8.99721 6.50001 8.99721C7.05201 8.99721 7.50001 9.44621 7.50001 9.99721C7.50001 10.5482 7.05201 10.9972 6.50001 10.9972Z" fill="black" fill-opacity="0.55"/>
<path d="M12.5 9.99721C12.5 10.5482 12.948 10.9972 13.5 10.9972C14.052 10.9972 14.5 10.5482 14.5 9.99721C14.5 9.44621 14.052 8.99721 13.5 8.99721C12.948 8.99721 12.5 9.44621 12.5 9.99721Z" fill="black" fill-opacity="0.55"/>
<path fill-rule="evenodd" clip-rule="evenodd" d="M10 1.99721C5.5818 1.99721 2.00001 5.57899 2.00001 9.99721C2.00001 11.4478 2.39245 12.8041 3.06487 13.9742C3.09294 14.0315 3.13115 14.1644 3.13176 14.3944C3.13237 14.624 3.09517 14.9011 3.0174 15.1969C2.85823 15.8024 2.55931 16.3769 2.21939 16.7172C2.0103 16.9265 1.9438 17.2392 2.04963 17.5155C2.15546 17.7918 2.41384 17.98 2.70927 17.9961C3.44912 18.0363 4.26318 17.8904 4.96901 17.6848C5.48719 17.5338 5.986 17.3393 6.39181 17.1317C6.91985 17.3998 7.63842 17.6919 8.52246 17.8591C9.00126 17.9498 9.49598 17.9972 10 17.9972C14.4182 17.9972 18 14.4154 18 9.99721C18 5.57899 14.4182 1.99721 10 1.99721ZM3.50001 9.99721C3.50001 6.40742 6.41022 3.49721 10 3.49721C13.5898 3.49721 16.5 6.40742 16.5 9.99721C16.5 13.587 13.5898 16.4972 10 16.4972C9.59005 16.4972 9.18876 16.4586 8.80156 16.3853C7.89291 16.2134 7.1979 15.8784 6.75769 15.6245C6.51393 15.4839 6.21199 15.4916 5.97571 15.6444C5.68756 15.8308 5.16488 16.0654 4.54951 16.2446C4.43711 16.2774 4.32403 16.3076 4.21115 16.3349C4.31665 16.0835 4.40252 15.8278 4.46812 15.5783C4.57235 15.1817 4.63277 14.7736 4.63176 14.3904C4.63077 14.0175 4.57146 13.6112 4.38473 13.2612C4.38078 13.2538 4.3767 13.2464 4.3725 13.2392C3.82021 12.2827 3.50001 11.1784 3.50001 9.99721Z" fill="var(--fill-0, #1A1A1A)" fill-opacity="0.6"/>
</g>
</g>
</svg>
