<svg preserveAspectRatio="none" width="100%" height="100%" overflow="visible" style="display: block;" viewBox="0 0 24 24" fill="none" xmlns="http://www.w3.org/2000/svg">
<g id="Frame 2147229516">
<path d="M12 0.5C18.3513 0.5 23.5 5.64873 23.5 12C23.5 18.3513 18.3513 23.5 12 23.5C5.64873 23.5 0.5 18.3513 0.5 12C0.5 5.64873 5.64873 0.5 12 0.5Z" fill="var(--fill-0, #F5F5F5)"/>
<path d="M12 0.5C18.3513 0.5 23.5 5.64873 23.5 12C23.5 18.3513 18.3513 23.5 12 23.5C5.64873 23.5 0.5 18.3513 0.5 12C0.5 5.64873 5.64873 0.5 12 0.5Z" stroke="var(--stroke-0, #E5E5E5)"/>
<path id="path147" d="M7.44247 14.475L10.3941 12.8199L10.4437 12.6762L10.3941 12.5962H10.2502L9.75694 12.5659L8.07046 12.5203L6.60784 12.4596L5.1908 12.3837L4.83426 12.3077L4.5 11.8674L4.53444 11.6477L4.83426 11.4463L5.26372 11.4837L6.21281 11.5485L7.63694 11.6467L8.6701 11.7075L10.2006 11.8664H10.4437L10.4781 11.7682L10.3951 11.7075L10.3302 11.6467L8.85647 10.6486L7.26116 9.59381L6.42552 8.98644L5.97377 8.6787L5.74586 8.3902L5.64761 7.76056L6.05784 7.30908L6.60885 7.34654L6.74965 7.38399L7.30775 7.8132L8.49993 8.73539L10.0568 9.88129L10.2847 10.0706L10.3758 10.0058L10.387 9.96025L10.2847 9.78918L9.43788 8.25962L8.53437 6.70374L8.13225 6.05891L8.0259 5.67222C7.98842 5.51329 7.96107 5.37967 7.96107 5.2167L8.42802 4.58301L8.68631 4.5L9.30924 4.58301L9.57158 4.81077L9.95851 5.69551L10.5855 7.08841L11.5579 8.98239L11.8425 9.5442L11.9944 10.0645L12.0512 10.2234H12.1494V10.1323L12.2294 9.06539L12.3773 7.7555L12.5211 6.07005L12.5708 5.59529L12.8058 5.02639L13.2727 4.71865L13.6373 4.89277L13.9372 5.32197L13.8956 5.59934L13.7174 6.75739L13.3679 8.5714L13.14 9.78614H13.2727L13.4246 9.6343L14.0395 8.8184L15.0726 7.52774L15.5284 7.01552L16.0602 6.44966L16.4015 6.18039H17.0468L17.5218 6.88595L17.3091 7.61479L16.6446 8.45701L16.0936 9.17067L15.3036 10.2336L14.8103 11.0839L14.8559 11.1517L14.9734 11.1406L16.7581 10.761L17.7224 10.5869L18.873 10.3895L19.3936 10.6324L19.4504 10.8794L19.2458 11.3845L18.0151 11.6882L16.5717 11.9767L14.4223 12.4849L14.396 12.5041L14.4264 12.5416L15.3947 12.6327L15.809 12.6549H16.8229L18.711 12.7957L19.2042 13.1216L19.5 13.5205L19.4504 13.8241L18.6907 14.2108L17.6656 13.9679L15.2732 13.399L14.4527 13.1945H14.3393V13.2623L15.023 13.9304L16.2759 15.0611L17.8449 16.5188L17.9249 16.8792L17.7234 17.1637L17.5107 17.1333L16.1321 16.0967L15.6003 15.63L14.396 14.6168H14.316V14.723L14.5935 15.129L16.0592 17.3307L16.1352 18.0059L16.0288 18.2255L15.649 18.3581L15.2317 18.2822L14.3737 17.0786L13.4885 15.7232L12.7744 14.5084L12.6873 14.558L12.2659 19.0941L12.0684 19.3259L11.6126 19.5L11.2327 19.2115L11.0312 18.7448L11.2327 17.8227L11.4758 16.619L11.6733 15.6624L11.8516 14.474L11.958 14.0792L11.9509 14.0529L11.8638 14.064L10.9674 15.294L9.60399 17.1353L8.52525 18.2893L8.26697 18.3916L7.81927 18.1597L7.86079 17.7457L8.11098 17.3772L9.60399 15.4792L10.5045 14.3029L11.0859 13.6237L11.0818 13.5255H11.0474L7.08188 16.0987L6.37589 16.1898L6.07202 15.9054L6.10949 15.4387L6.25333 15.2869L7.44551 14.4669L7.44145 14.471L7.44247 14.475Z" fill="var(--fill-0, #D97757)"/>
</g>
</svg>
