<svg preserveAspectRatio="none" width="100%" height="100%" overflow="visible" style="display: block;" viewBox="0 0 15 14.4004" fill="none" xmlns="http://www.w3.org/2000/svg">
<g id="Frame 14440">
<path id="mark" d="M5.79306 9.24359L10.7799 5.55793C11.0244 5.37725 11.3738 5.44772 11.4903 5.7284C12.1034 7.20854 11.8295 8.9873 10.6096 10.2086C9.38984 11.4298 7.69257 11.6977 6.14124 11.0877L4.44653 11.8733C6.87723 13.5367 9.82887 13.1253 11.6733 11.2774C13.1364 9.81258 13.5895 7.81596 13.1658 6.01546L13.1696 6.01929C12.5552 3.37424 13.3207 2.31699 14.8887 0.155064C14.9258 0.103803 14.9629 0.0525422 15 0L12.9367 2.06581V2.0594L5.7918 9.24489" fill="var(--fill-0, black)"/>
<path id="mark_2" d="M4.76414 10.1394C3.01949 8.47083 3.32029 5.88856 4.80891 4.39947C5.90969 3.29735 7.71321 2.84754 9.28758 3.5088L10.9785 2.72708C10.6738 2.50666 10.2834 2.26958 9.83542 2.10298C7.8105 1.26871 5.38619 1.68392 3.74013 3.33067C2.15678 4.9159 1.65887 7.35336 2.5139 9.43327C3.15261 10.9878 2.10558 12.0873 1.05087 13.1971C0.677112 13.5905 0.302076 13.9839 0 14.4004L4.76283 10.1406" fill="var(--fill-0, black)"/>
</g>
</svg>
