<svg preserveAspectRatio="none" width="100%" height="100%" overflow="visible" style="display: block;" viewBox="0 0 24 24" fill="none" xmlns="http://www.w3.org/2000/svg">
<g id="Frame 2147229504">
<path d="M12 0.5C18.3513 0.5 23.5 5.64873 23.5 12C23.5 18.3513 18.3513 23.5 12 23.5C5.64873 23.5 0.5 18.3513 0.5 12C0.5 5.64873 5.64873 0.5 12 0.5Z" fill="var(--fill-0, #F5F5F5)"/>
<path d="M12 0.5C18.3513 0.5 23.5 5.64873 23.5 12C23.5 18.3513 18.3513 23.5 12 23.5C5.64873 23.5 0.5 18.3513 0.5 12C0.5 5.64873 5.64873 0.5 12 0.5Z" stroke="var(--stroke-0, #E5E5E5)"/>
<path id="Vector" fill-rule="evenodd" clip-rule="evenodd" d="M7.08679 4.5L11.5528 8.43536V8.43446V4.50908H12.4222V8.45297L16.9082 4.5V8.9869H18.75V15.4588H16.9139V19.4542L12.4222 15.68V19.4975H11.5528V15.7422L7.09186 19.5V15.4588H5.25V8.9869H7.08679V4.5ZM10.8974 9.8082H6.11936V14.6375H7.09076V13.1142L10.8974 9.8082ZM7.96117 13.4786V17.6673L11.5528 14.6419V10.3586L7.96117 13.4786ZM12.4472 14.6018V10.3546L16.0399 13.4747V15.4588H16.0445V17.6246L12.4472 14.6018ZM16.9139 14.6375H17.8806V9.8082H13.1382L16.9139 13.08V14.6375ZM16.0388 8.9869V6.38916L13.0908 8.9869H16.0388ZM10.9042 8.9869H7.95615V6.38916L10.9042 8.9869Z" fill="var(--fill-0, black)"/>
</g>
</svg>
