<svg width="20" height="20" viewBox="0 0 20 20" fill="none" xmlns="http://www.w3.org/2000/svg">
<g id="Icon/Large/Rocket">
<path d="M12.5206 9.15953C13.4443 9.15953 14.1931 8.41072 14.1931 7.48702C14.1931 6.56331 13.4443 5.8145 12.5206 5.8145C11.5969 5.8145 10.8481 6.56331 10.8481 7.48702C10.8481 8.41072 11.5969 9.15953 12.5206 9.15953Z" fill="#106844"/>
<path fill-rule="evenodd" clip-rule="evenodd" d="M8.70453 5.0902C12.5598 1.56135 16.9667 1.99504 17.341 2.03962C17.6696 2.07877 17.9286 2.33776 17.9679 2.66633C18.0125 3.03936 18.4447 7.43293 14.9352 11.2835L15.107 12.2456C15.3699 13.7162 14.7598 15.2071 13.541 16.0703L11.0045 17.868C10.7469 18.0506 10.4001 18.0431 10.1507 17.8496C9.9018 17.6565 9.80819 17.3237 9.91967 17.0294L9.92213 17.0226C9.92482 17.0151 9.92952 17.0017 9.93587 16.9827C9.94857 16.9447 9.96781 16.8842 9.99062 16.8032C10.0363 16.641 10.096 16.3974 10.1462 16.0875C10.2144 15.667 10.2647 15.1278 10.2402 14.5062C9.77001 14.6887 9.39066 14.8015 9.14735 14.8683C8.89889 14.9365 8.63295 14.8661 8.45077 14.6839L5.32364 11.5568C5.14145 11.3746 5.07106 11.1087 5.13926 10.8602C5.20515 10.6202 5.31587 10.2477 5.49402 9.78618C4.86901 9.761 4.32698 9.81139 3.90464 9.87987C3.59475 9.93012 3.35117 9.98982 3.18897 10.0355C3.10795 10.0583 3.04748 10.0775 3.00946 10.0902C2.99046 10.0966 2.9771 10.1013 2.96962 10.104L2.96284 10.1064C2.66847 10.2179 2.33567 10.1243 2.14263 9.87546C1.94909 9.62597 1.94159 9.27923 2.12417 9.02162L3.92189 6.48513C4.78507 5.26632 6.276 4.6562 7.74659 4.91906L8.70453 5.0902ZM16.5743 3.43325C15.2968 3.42599 12.2257 3.71123 9.50949 6.29991C9.49811 6.31076 9.48677 6.32161 9.47547 6.33247C9.45039 6.36101 9.42313 6.38746 9.39401 6.41158C7.6851 8.08827 6.94166 9.90593 6.63934 10.8451L9.16246 13.3682C9.51395 13.2551 9.9885 13.0801 10.5327 12.8159C10.5393 12.8126 10.5459 12.8093 10.5527 12.8062C11.491 12.3482 12.6332 11.6254 13.7077 10.4981C16.2962 7.78208 16.5815 4.71057 16.5743 3.43325ZM6.1339 8.39502C5.46221 8.32677 4.85356 8.33673 4.33422 8.38258L5.09151 7.31409C5.63326 6.54901 6.56999 6.16504 7.49431 6.33028L7.51982 6.33483C6.93169 7.04487 6.47981 7.75094 6.1339 8.39502ZM11.6435 15.658C11.6893 15.1399 11.6993 14.5331 11.6316 13.8634C12.2762 13.5158 12.982 13.0622 13.6913 12.4723L13.6958 12.4979C13.8611 13.4222 13.4771 14.3589 12.712 14.9007L11.6435 15.658Z" fill="#106844"/>
<path d="M4.72249 14.015C5.08329 13.8521 5.24369 13.4276 5.08077 13.0668C4.91785 12.706 4.4933 12.5456 4.1325 12.7085C3.30257 13.0833 2.72439 13.9191 2.72439 14.89V16.5663C2.72439 16.9622 3.04531 17.2831 3.44119 17.2831H5.11848C6.08988 17.2831 6.92523 16.7035 7.29978 15.8754C7.46293 15.5147 7.30278 15.0901 6.94208 14.9269C6.58139 14.7638 6.15674 14.9239 5.99359 15.2846C5.8425 15.6187 5.50613 15.8495 5.11848 15.8495H4.15798V14.89C4.15798 14.5018 4.38835 14.1659 4.72249 14.015Z" fill="#106844"/>
</g>
</svg>
