<svg preserveAspectRatio="none" width="100%" height="100%" overflow="visible" style="display: block;" viewBox="0 0 20 20" fill="none" xmlns="http://www.w3.org/2000/svg">
<g id="Search icon">
<g id="Artwork">
<path d="M12.5207 9.15953C13.4444 9.15953 14.1932 8.41072 14.1932 7.48702C14.1932 6.56331 13.4444 5.8145 12.5207 5.8145C11.597 5.8145 10.8482 6.56331 10.8482 7.48702C10.8482 8.41072 11.597 9.15953 12.5207 9.15953Z" fill="var(--fill-0, white)" fill-opacity="0.8"/>
<path fill-rule="evenodd" clip-rule="evenodd" d="M8.70466 5.0902C12.5599 1.56135 16.9668 1.99504 17.3411 2.03962C17.6697 2.07877 17.9288 2.33776 17.968 2.66633C18.0126 3.03936 18.4449 7.43293 14.9353 11.2835L15.1072 12.2456C15.37 13.7162 14.7599 15.2071 13.5411 16.0703L11.0046 17.868C10.747 18.0506 10.4003 18.0431 10.1508 17.8496C9.90193 17.6565 9.80831 17.3237 9.9198 17.0294L9.92226 17.0226C9.92495 17.0151 9.92965 17.0017 9.936 16.9827C9.9487 16.9447 9.96794 16.8842 9.99075 16.8032C10.0364 16.641 10.0961 16.3974 10.1464 16.0875C10.2146 15.667 10.2648 15.1278 10.2404 14.5062C9.77014 14.6887 9.39079 14.8015 9.14748 14.8683C8.89902 14.9365 8.63308 14.8661 8.4509 14.6839L5.32377 11.5568C5.14158 11.3746 5.07119 11.1087 5.13939 10.8602C5.20528 10.6202 5.316 10.2477 5.49415 9.78618C4.86914 9.761 4.32711 9.81139 3.90477 9.87987C3.59488 9.93012 3.3513 9.98982 3.1891 10.0355C3.10808 10.0583 3.04761 10.0775 3.00959 10.0902C2.99059 10.0966 2.97723 10.1013 2.96975 10.104L2.96297 10.1064C2.6686 10.2179 2.3358 10.1243 2.14275 9.87546C1.94922 9.62597 1.94172 9.27923 2.1243 9.02162L3.92202 6.48513C4.7852 5.26632 6.27613 4.6562 7.74672 4.91906L8.70466 5.0902ZM16.5744 3.43325C15.2969 3.42599 12.2258 3.71123 9.50962 6.29991C9.49824 6.31076 9.4869 6.32161 9.4756 6.33247C9.45052 6.36101 9.42326 6.38746 9.39414 6.41158C7.68523 8.08827 6.94179 9.90593 6.63947 10.8451L9.16259 13.3682C9.51408 13.2551 9.98863 13.0801 10.5328 12.8159C10.5394 12.8126 10.5461 12.8093 10.5528 12.8062C11.4912 12.3482 12.6334 11.6254 13.7078 10.4981C16.2963 7.78208 16.5816 4.71057 16.5744 3.43325ZM6.13403 8.39502C5.46234 8.32677 4.85369 8.33673 4.33435 8.38258L5.09164 7.31409C5.63339 6.549 6.57012 6.16504 7.49444 6.33028L7.51995 6.33483C6.93182 7.04487 6.47994 7.75094 6.13403 8.39502ZM11.6437 15.658C11.6894 15.1399 11.6994 14.5331 11.6317 13.8634C12.2763 13.5158 12.9821 13.0622 13.6914 12.4723L13.696 12.4979C13.8612 13.4222 13.4772 14.3589 12.7122 14.9007L11.6437 15.658ZM9.92065 17.0271L10.5901 17.2832C9.92065 17.0271 9.92065 17.0271 9.92065 17.0271ZM2.9652 10.1056L2.70911 9.4361C2.9652 10.1056 2.9652 10.1056 2.9652 10.1056Z" fill="var(--fill-0, white)" fill-opacity="0.8"/>
<path d="M4.72262 14.015C5.08341 13.8521 5.24382 13.4276 5.0809 13.0668C4.91798 12.706 4.49343 12.5456 4.13263 12.7085C3.3027 13.0833 2.72452 13.9191 2.72452 14.89V16.5663C2.72452 16.9622 3.04544 17.2831 3.44132 17.2831H5.11861C6.09001 17.2831 6.92536 16.7035 7.29991 15.8754C7.46306 15.5147 7.30291 15.0901 6.94221 14.9269C6.58152 14.7638 6.15687 14.9239 5.99372 15.2846C5.84263 15.6187 5.50626 15.8495 5.11861 15.8495H4.15811V14.89C4.15811 14.5018 4.38848 14.1659 4.72262 14.015Z" fill="var(--fill-0, white)" fill-opacity="0.8"/>
</g>
</g>
</svg>
