<svg preserveAspectRatio="none" width="100%" height="100%" overflow="visible" style="display: block;" viewBox="0 0 20 20" fill="none" xmlns="http://www.w3.org/2000/svg">
<g id="Search icon">
<g id="Artwork">
<path d="M6.546 5.1765L7.492 5.4915H7.491C7.644 5.5425 7.748 5.6855 7.748 5.8475C7.748 6.0095 7.644 6.1525 7.491 6.2035L6.545 6.5185L6.229 7.4655C6.179 7.6175 6.035 7.7215 5.874 7.7215C5.713 7.7215 5.57 7.6185 5.519 7.4655L5.203 6.5185L4.257 6.2035C4.104 6.1525 4 6.0095 4 5.8475C4 5.6855 4.104 5.5425 4.257 5.4915L5.203 5.1765L5.519 4.2295C5.621 3.9235 6.128 3.9235 6.23 4.2295L6.546 5.1765Z" fill="var(--fill-0, white)" fill-opacity="0.8"/>
<path fill-rule="evenodd" clip-rule="evenodd" d="M11.1975 5.4739C11.0844 5.18764 10.8079 4.99955 10.5001 4.99951C10.1923 4.99947 9.91573 5.18749 9.80255 5.47373L8.57603 8.57554L5.47421 9.80206C5.18802 9.91523 5 10.1918 5 10.4995C5 10.8073 5.18802 11.0838 5.47421 11.197L8.57603 12.4235L9.80255 15.5253C9.91573 15.8115 10.1923 15.9996 10.5001 15.9995C10.8079 15.9995 11.0844 15.8114 11.1975 15.5251L12.4231 12.4235L15.5257 11.197C15.812 11.0838 16 10.8073 16 10.4995C16 10.1917 15.812 9.91518 15.5257 9.80203L12.4231 8.57554L11.1975 5.4739ZM9.85145 9.4293L10.4997 7.7898L11.1475 9.42912C11.2237 9.62202 11.3764 9.77474 11.5693 9.85099L13.2099 10.4995L11.5693 11.148C11.3764 11.2243 11.2237 11.377 11.1475 11.5699L10.4997 13.2092L9.85145 11.5697C9.77522 11.3769 9.62258 11.2243 9.42979 11.1481L7.78963 10.4995L9.42979 9.85097C9.62258 9.77473 9.77522 9.62209 9.85145 9.4293Z" fill="var(--fill-0, white)" fill-opacity="0.8"/>
</g>
</g>
</svg>
