<svg preserveAspectRatio="none" width="100%" height="100%" overflow="visible" style="display: block;" viewBox="0 0 20 20" fill="none" xmlns="http://www.w3.org/2000/svg">
<g id="Icon/Large/Knowledge">
<path id="Artwork" d="M9.25 5.5C9.25 4.67121 8.57879 4 7.75 4C6.92121 4 6.25 4.67121 6.25 5.5C6.25 5.50464 6.25021 5.51779 6.25391 5.54883C6.25576 5.56436 6.25865 5.58091 6.26172 5.60352C6.26456 5.62447 6.26802 5.65236 6.27148 5.68066C6.29611 5.88215 6.23788 6.08526 6.11035 6.24316C5.98263 6.40111 5.79607 6.50046 5.59375 6.51855C4.69639 6.59879 4 7.34244 4 8.25C4 8.96101 4.4269 9.57479 5.04297 9.84766C5.05178 9.85156 5.05975 9.85711 5.06836 9.86133C5.27778 9.94934 5.5078 10 5.75 10H6.5C6.9142 10 7.25 10.3358 7.25 10.75C7.25 11.1642 6.9142 11.5 6.5 11.5H5.75C5.44333 11.5 5.14622 11.4556 4.86426 11.376C4.63712 11.6025 4.5 11.9113 4.5 12.25C4.5 12.8855 4.98155 13.4111 5.61133 13.4824C5.81012 13.5049 5.99128 13.6066 6.11523 13.7637C6.23919 13.9207 6.29576 14.1207 6.27148 14.3193C6.26802 14.3476 6.26456 14.3755 6.26172 14.3965C6.25865 14.4191 6.25576 14.4356 6.25391 14.4512C6.25021 14.4822 6.25 14.4954 6.25 14.5C6.25 15.3288 6.92121 16 7.75 16C8.57879 16 9.25 15.3288 9.25 14.5V5.5ZM17.5 8.25C17.5 9.19078 17.0979 10.0335 16.4609 10.625C16.7972 11.0774 17 11.6372 17 12.25C17 13.4252 16.2624 14.4116 15.2344 14.8057C15.0813 16.3192 13.804 17.5 12.25 17.5C11.3525 17.5 10.5497 17.1039 10 16.4795C9.45029 17.1039 8.64754 17.5 7.75 17.5C6.19595 17.5 4.91769 16.3193 4.76465 14.8057C3.73706 14.4114 3 13.4248 3 12.25C3 11.6374 3.20207 11.0773 3.53809 10.625C2.90143 10.0335 2.5 9.19052 2.5 8.25C2.5 6.79367 3.45738 5.57885 4.76855 5.16504C4.93504 3.66556 6.20602 2.5 7.75 2.5C8.64728 2.5 9.4503 2.89547 10 3.51953C10.5497 2.89547 11.3527 2.5 12.25 2.5C13.7939 2.5 15.0639 3.66562 15.2305 5.16504C16.5421 5.57858 17.5 6.79334 17.5 8.25ZM10.75 14.5C10.75 15.3288 11.4212 16 12.25 16C13.0788 16 13.75 15.3288 13.75 14.5C13.75 14.4954 13.7498 14.4822 13.7461 14.4512C13.7442 14.4356 13.7413 14.4191 13.7383 14.3965C13.7354 14.3755 13.732 14.3477 13.7285 14.3193C13.7042 14.1207 13.7608 13.9207 13.8848 13.7637C14.0087 13.6066 14.1899 13.5049 14.3887 13.4824C15.0184 13.4111 15.5 12.8855 15.5 12.25C15.5 11.9115 15.3626 11.6035 15.1357 11.377C14.8538 11.4565 14.5566 11.5 14.25 11.5H13.5C13.0858 11.5 12.75 11.1642 12.75 10.75C12.75 10.3358 13.0858 10 13.5 10H14.25C14.4919 10 14.7215 9.94912 14.9307 9.86133C14.9395 9.85697 14.948 9.85168 14.957 9.84766C15.5731 9.57479 16 8.96101 16 8.25C16 7.34245 15.3036 6.59879 14.4062 6.51855C14.2039 6.50046 14.0174 6.40111 13.8896 6.24316C13.7621 6.08526 13.7039 5.88215 13.7285 5.68066C13.732 5.65234 13.7354 5.62448 13.7383 5.60352C13.7413 5.58091 13.7442 5.56435 13.7461 5.54883C13.7498 5.51778 13.75 5.50461 13.75 5.5C13.75 4.67121 13.0788 4 12.25 4C11.4212 4 10.75 4.67121 10.75 5.5V14.5Z" fill="#1A1A1A"/>
</g>
</svg>
