<svg preserveAspectRatio="none" width="100%" height="100%" overflow="visible" style="display: block;" viewBox="0 0 20 20" fill="none" xmlns="http://www.w3.org/2000/svg">
<g id="Icon/Large/Upgrade">
<path id="Artwork" d="M9.99985 16C10.4141 16 10.7498 16.3358 10.7498 16.75V17.8154L10.7459 17.8916C10.7076 18.2698 10.3882 18.5654 9.99985 18.5654C9.61157 18.5654 9.29212 18.2698 9.25375 17.8916L9.24985 17.8154V16.75C9.24985 16.3358 9.58571 16.0001 9.99985 16ZM9.99985 2.02441C10.2853 2.02441 10.5463 2.18641 10.6727 2.44238L12.5067 6.15918L16.6082 6.75488L16.7108 6.77734C16.9463 6.84633 17.1355 7.02798 17.2127 7.26562C17.3007 7.53696 17.2275 7.83502 17.0233 8.03418L14.0555 10.9268L14.7557 15.0117C14.8037 15.2929 14.6886 15.5774 14.4579 15.7451C14.227 15.9127 13.9203 15.9353 13.6678 15.8027L9.99985 13.873L6.33188 15.8027C6.07935 15.9353 5.77265 15.9127 5.54184 15.7451C5.31111 15.5774 5.19597 15.2929 5.24399 15.0117L5.94321 10.9268L2.97641 8.03418C2.77219 7.83503 2.699 7.53695 2.78696 7.26562C2.87515 6.99439 3.10925 6.79612 3.39145 6.75488L7.49204 6.15918L9.327 2.44238L9.38071 2.35059C9.51917 2.14824 9.75018 2.02443 9.99985 2.02441ZM8.66293 7.17676C8.56722 7.37001 8.39362 7.51133 8.18832 7.56738L8.09848 7.58691L5.11118 8.02051L7.27329 10.1279C7.42788 10.2787 7.50905 10.4883 7.49887 10.7012L7.48911 10.792L6.97836 13.7666L9.65122 12.3623L9.73422 12.3252C9.93352 12.2497 10.1572 12.2619 10.3485 12.3623L13.0204 13.7666L12.5106 10.792C12.469 10.5489 12.5499 10.3002 12.7264 10.1279L14.8875 8.02051L11.9012 7.58691C11.6573 7.55145 11.4461 7.39761 11.3368 7.17676L9.99985 4.46875L8.66293 7.17676ZM2.93149 10.96C3.32537 10.8322 3.74888 11.0475 3.8768 11.4414C4.00443 11.835 3.78869 12.2575 3.39536 12.3857L2.38168 12.7148L2.30747 12.7354C1.93604 12.8154 1.55729 12.6026 1.43735 12.2334C1.3094 11.8394 1.52484 11.416 1.91879 11.2881L2.93149 10.96ZM16.994 10.9395L17.0682 10.96L18.0819 11.2881L18.1532 11.3154C18.501 11.4687 18.6831 11.8641 18.5633 12.2334C18.4354 12.6274 18.012 12.8428 17.618 12.7148L16.6053 12.3857L16.5331 12.3584C16.1857 12.2049 16.004 11.8105 16.1239 11.4414C16.2438 11.0723 16.6226 10.8595 16.994 10.9395ZM4.70883 2.16797C5.02313 1.93972 5.45458 1.99077 5.70786 2.27441L5.75571 2.33398L6.38168 3.19531L6.42368 3.25977C6.61487 3.58835 6.5299 4.01497 6.21567 4.24316C5.90154 4.47116 5.46993 4.41995 5.21665 4.13672L5.16879 4.07715L4.54282 3.21484L4.50082 3.15039C4.3098 2.82184 4.3947 2.39612 4.70883 2.16797ZM14.2928 2.27441C14.5461 1.9908 14.9776 1.93973 15.2918 2.16797C15.6057 2.39619 15.6908 2.82198 15.4998 3.15039L15.4579 3.21484L14.8319 4.07715L14.784 4.13672C14.5309 4.42005 14.0992 4.4709 13.785 4.24316C13.4498 3.99977 13.3756 3.53047 13.619 3.19531L14.245 2.33398L14.2928 2.27441Z" fill="#1A1A1A"/>
</g>
</svg>
