<svg preserveAspectRatio="none" width="100%" height="100%" overflow="visible" style="display: block;" viewBox="0 0 20 20" fill="none" xmlns="http://www.w3.org/2000/svg">
<g id="Icon/Large/Warning triangle">
<g id="Artwork">
<path d="M10.0001 6.77052C10.4144 6.77052 10.7501 7.1063 10.7501 7.52052V11.0205C10.7501 11.4347 10.4144 11.7705 10.0001 11.7705C9.58593 11.7705 9.25014 11.4347 9.25014 11.0205V7.52052C9.25014 7.1063 9.58593 6.77052 10.0001 6.77052Z" fill="var(--fill-0, #B45309)"/>
<path d="M9.00014 13.5896C9.00014 14.1406 9.44814 14.5896 10.0001 14.5896C10.5521 14.5896 11.0001 14.1406 11.0001 13.5896C11.0001 13.0386 10.5521 12.5896 10.0001 12.5896C9.44814 12.5896 9.00014 13.0386 9.00014 13.5896Z" fill="var(--fill-0, #B45309)"/>
<path fill-rule="evenodd" clip-rule="evenodd" d="M7.98857 4.14049C8.88225 2.59249 11.118 2.5925 12.0116 4.14053L17.4366 13.5365C18.3297 15.085 17.2139 17.0205 15.4251 17.0205H4.57508C2.78635 17.0205 1.6701 15.0842 2.56355 13.5365L7.98857 4.14049ZM10.7125 4.89047C10.3962 4.34251 9.60395 4.34251 9.28762 4.89047L3.86262 14.2865C3.54611 14.8348 3.94184 15.5205 4.57508 15.5205H15.4251C16.0583 15.5205 16.4543 14.8358 16.1374 14.2863L10.7125 4.89047Z" fill="var(--fill-0, #B45309)"/>
</g>
</g>
</svg>
